<?xml version="1.0" encoding="UTF-8"?>
<svg xmlns="http://www.w3.org/2000/svg" viewBox="0 0 91.92 91.92">
  <defs>
    <style>.cls-1{fill:#9a111f;}</style>
  </defs>
  <g id="Layer_2" data-name="Layer 2">
    <g id="Layer_1-2" data-name="Layer 1">
      <path class="cls-1" d="M30.64,46A15.32,15.32,0,1,1,46,61.28,15.3,15.3,0,0,1,30.64,46m-8.28,0A23.61,23.61,0,1,0,45.92,22.36,23.61,23.61,0,0,0,22.36,46M64.93,21.39a5.52,5.52,0,1,0,5.51-5.52,5.5,5.5,0,0,0-5.51,5.52m-37.47,62a25.7,25.7,0,0,1-8.53-1.56,14.54,14.54,0,0,1-5.3-3.44,14.06,14.06,0,0,1-3.44-5.28,25.28,25.28,0,0,1-1.6-8.52c-.23-4.85-.28-6.3-.3-18.58s0-13.72.23-18.57a25.44,25.44,0,0,1,1.56-8.53,14.19,14.19,0,0,1,3.43-5.29,14.12,14.12,0,0,1,5.28-3.45,25.68,25.68,0,0,1,8.53-1.6c4.85-.23,6.3-.28,18.57-.3s13.72,0,18.57.23A25.24,25.24,0,0,1,73,10.09a14.08,14.08,0,0,1,5.29,3.42,14.22,14.22,0,0,1,3.44,5.28,24.91,24.91,0,0,1,1.6,8.53c.24,4.85.28,6.3.31,18.57s0,13.72-.23,18.57A25.5,25.5,0,0,1,81.84,73a15.24,15.24,0,0,1-8.71,8.74,25.09,25.09,0,0,1-8.52,1.59c-4.85.24-6.3.28-18.58.31s-13.72,0-18.57-.23M26.93.32A33.5,33.5,0,0,0,15.77,2.48,22.34,22.34,0,0,0,7.65,7.79a22.47,22.47,0,0,0-5.29,8.15A33.7,33.7,0,0,0,.25,27.1C0,32,0,33.57,0,46.05s.08,14,.31,19A33.44,33.44,0,0,0,2.48,76.15a22.37,22.37,0,0,0,5.31,8.13,22.6,22.6,0,0,0,8.15,5.29A34.22,34.22,0,0,0,27.1,91.68c4.91.21,6.47.26,18.95.24s14-.08,19-.31a34,34,0,0,0,11.15-2.16A23.55,23.55,0,0,0,89.57,76a34.1,34.1,0,0,0,2.11-11.15c.21-4.91.26-6.47.24-18.95s-.08-14.05-.31-19a34,34,0,0,0-2.16-11.16,22.58,22.58,0,0,0-5.32-8.12A22.38,22.38,0,0,0,76,2.36,33.64,33.64,0,0,0,64.82.25C59.92,0,58.36,0,45.87,0s-14,.08-18.94.31"></path>
    </g>
  </g>
</svg>
