<?xml version="1.0" encoding="UTF-8"?>
<svg xmlns="http://www.w3.org/2000/svg" viewBox="0 0 91.92 91.92">
  <defs>
    <style>.cls-1{fill:#9a111f;}</style>
  </defs>
  <g id="Layer_2" data-name="Layer 2">
    <g id="Layer_1-2" data-name="Layer 1">
      <path class="cls-1" d="M78.34,78.34H64.52v-24c0-7.08-3-9.26-6.88-9.26-4.1,0-8.13,3.08-8.13,9.43v23.8H35.7V34.44H49v6.09h.18c1.34-2.71,6-7.32,13.14-7.32,7.71,0,16,4.57,16,18Zm-57.85-50a7.83,7.83,0,0,1-8-7.94,7.83,7.83,0,0,1,8-7.93,7.83,7.83,0,0,1,8,7.93,7.83,7.83,0,0,1-8,7.94m6.9,50H13.58V34.41H27.39ZM85.14,0H6.78A6.78,6.78,0,0,0,0,6.78V85.14a6.77,6.77,0,0,0,6.78,6.78H85.14a6.78,6.78,0,0,0,6.78-6.78V6.78A6.79,6.79,0,0,0,85.14,0"></path>
    </g>
  </g>
</svg>
