<?xml version="1.0" encoding="UTF-8"?>
<svg xmlns="http://www.w3.org/2000/svg" viewBox="0 0 80.17 91.92">
  <defs>
    <style>.cls-1{fill:#9a111f;}</style>
  </defs>
  <g id="Layer_2" data-name="Layer 2">
    <g id="Layer_1-2" data-name="Layer 1">
      <path class="cls-1" d="M68.19,18.42A22,22,0,0,1,58.55,4a22.15,22.15,0,0,1-.37-4H42.38l0,63.34A13.3,13.3,0,0,1,29.09,76.12,13.32,13.32,0,0,1,15.81,62.83,13.23,13.23,0,0,1,33,50.16V34a29.76,29.76,0,0,0-3.92-.29A29.09,29.09,0,1,0,58.18,62.83V30.72a37.58,37.58,0,0,0,22,7.07V22a21.85,21.85,0,0,1-12-3.56"></path>
    </g>
  </g>
</svg>
