<?xml version="1.0" encoding="UTF-8"?> <svg xmlns="http://www.w3.org/2000/svg" xmlns:xlink="http://www.w3.org/1999/xlink" version="1.1" id="Layer_1" x="0px" y="0px" viewBox="0 0 91.9 74.7" style="enable-background:new 0 0 91.9 74.7;" xml:space="preserve"> <style type="text/css"> .st0{fill:#9A111F;} </style> <path class="st0" d="M44.1,41.9l-2.9-4.1l-23-32.9h9.9l18.6,26.6l2.9,4.1l24.1,34.5h-9.9L44.1,41.9L44.1,41.9z M52.9,31.6L80.1,0 h-6.4L50,27.5L31.2,0H9.4L38,41.5L9.4,74.7h6.4l24.9-29l19.9,29h21.8L52.9,31.6L52.9,31.6z"></path> <path class="st0" d="M44.1,41.9l-2.9-4.1l-23-32.9h9.9l18.6,26.6l2.9,4.1l24.1,34.5h-9.9L44.1,41.9L44.1,41.9z M52.9,31.6L80.1,0 h-6.4L50,27.5L31.2,0H9.4L38,41.5L9.4,74.7h6.4l24.9-29l19.9,29h21.8L52.9,31.6L52.9,31.6z"></path> </svg> 