<?xml version="1.0" encoding="UTF-8"?>
<svg xmlns="http://www.w3.org/2000/svg" viewBox="0 0 91.93 64.77">
  <defs>
    <style>.cls-1{fill:#9a111f;}</style>
  </defs>
  <g id="Layer_2" data-name="Layer 2">
    <g id="Layer_1-2" data-name="Layer 1">
      <path class="cls-1" d="M36.57,46.05V18.71l24,13.67ZM90,10.11a11.53,11.53,0,0,0-8.13-8.17C74.71,0,46,0,46,0S17.22,0,10.05,1.94a11.52,11.52,0,0,0-8.12,8.17C0,17.33,0,32.38,0,32.38s0,15,1.93,22.27a11.53,11.53,0,0,0,8.12,8.18C17.22,64.77,46,64.77,46,64.77s28.74,0,35.91-1.94A11.55,11.55,0,0,0,90,54.65c1.92-7.22,1.92-22.27,1.92-22.27s0-15.05-1.92-22.27"></path>
    </g>
  </g>
</svg>
